<?xml version="1.0" encoding="UTF-8" standalone="no"?>
<svg
   width="64"
   height="64"
   viewBox="0 0 64 64"
   fill="none"
   version="1.1"
   id="svg119"
   sodipodi:docname="com.github.hellokartikey.komikman.svg"
   inkscape:version="1.4 (e7c3feb100, 2024-10-09)"
   xml:space="preserve"
   xmlns:inkscape="http://www.inkscape.org/namespaces/inkscape"
   xmlns:sodipodi="http://sodipodi.sourceforge.net/DTD/sodipodi-0.dtd"
   xmlns="http://www.w3.org/2000/svg"
   xmlns:svg="http://www.w3.org/2000/svg"><sodipodi:namedview
     id="namedview121"
     pagecolor="#ffffff"
     bordercolor="#000000"
     borderopacity="0.25"
     inkscape:showpageshadow="2"
     inkscape:pageopacity="0.0"
     inkscape:pagecheckerboard="0"
     inkscape:deskcolor="#d1d1d1"
     showgrid="false"
     showguides="false"
     inkscape:zoom="9.3423804"
     inkscape:cx="34.306032"
     inkscape:cy="27.883686"
     inkscape:window-width="1282"
     inkscape:window-height="1080"
     inkscape:window-x="0"
     inkscape:window-y="0"
     inkscape:window-maximized="0"
     inkscape:current-layer="svg119"><inkscape:grid
       type="xygrid"
       id="grid6103"
       empspacing="5"
       originx="0"
       originy="0"
       spacingy="1"
       spacingx="1"
       units="px"
       visible="false" /><sodipodi:guide
       position="48,62"
       orientation="0,-1"
       id="guide1"
       inkscape:locked="false" /><sodipodi:guide
       position="10,5"
       orientation="0,-1"
       id="guide2"
       inkscape:locked="false" /><sodipodi:guide
       position="50,42"
       orientation="1,0"
       id="guide3"
       inkscape:locked="false" /><sodipodi:guide
       position="10,46"
       orientation="1,0"
       id="guide4"
       inkscape:locked="false" /><sodipodi:guide
       position="30,55"
       orientation="1,0"
       id="guide5"
       inkscape:locked="false" /><sodipodi:guide
       position="54,46"
       orientation="1,0"
       id="guide6"
       inkscape:locked="false" /><sodipodi:guide
       position="20,2"
       orientation="0,-1"
       id="guide7"
       inkscape:locked="false" /><sodipodi:guide
       position="25,3"
       orientation="0,-1"
       id="guide8"
       inkscape:locked="false" /><sodipodi:guide
       position="53,36"
       orientation="1,0"
       id="guide9"
       inkscape:locked="false" /></sodipodi:namedview><path
     d="M 54,13.770565 V 61.998089 H 13.528114 c -1.868509,0 -3.372668,-2.099842 -3.372668,-4.708158 v -38.81112 c 0,-2.608403 1.504159,-4.708246 3.372668,-4.708246 z"
     fill="#a85000"
     id="path2"
     sodipodi:nodetypes="ccssssc"
     style="fill:#467c8e;fill-opacity:1;stroke-width:0.0783792" /><path
     d="M 53.41356,20.83289 V 60.993656 H 13.484418 c -1.882595,0 -3.398163,-2.099842 -3.398163,-4.70816 V 25.541052 c 0,-2.608317 1.515568,-4.708162 3.398163,-4.708162 z"
     fill="url(#paint0_linear_510_1129)"
     id="path4"
     sodipodi:nodetypes="ccssssc"
     style="fill:url(#paint0_linear_510_1129);stroke-width:0.0787897" /><path
     d="M 54,3.177344 V 59 H 13.692 C 11.816866,59 10,56.398812 10,53.790496 V 7.885547 c 0,-2.608342 1.509492,-4.708203 3.384626,-4.708203 z"
     fill="#a85100"
     id="path6"
     style="fill:#467c8e;fill-opacity:1;stroke-width:0.078518"
     sodipodi:nodetypes="ccssssc" /><path
     d="M 54,2.000077 V 59 H 13.692 C 11.816866,59 10,55.221599 10,52.613188 V 6.70828 c 0,-2.608342 1.509492,-4.708203 3.384626,-4.708203 z"
     fill="url(#paint2_linear_510_1129)"
     fill-opacity="0.990315"
     id="path10"
     style="display:inline;fill:url(#paint2_linear_510_1129);stroke-width:0.078518"
     sodipodi:nodetypes="ccssssc" /><path
     d="m 50,2.000077 h 4 V 59 h -4 z"
     fill="#a85000"
     id="path12"
     style="display:inline;fill:#467c8e;fill-opacity:1;stroke-width:0.0850431"
     sodipodi:nodetypes="ccccc" /><path
     d="M 54,57.362326 V 62 h -5 v -1 h 4 v -3 h -3 v -0.637674 z"
     fill="#a85000"
     id="path14"
     sodipodi:nodetypes="ccccccccc"
     style="display:inline;fill:#467c8e;fill-opacity:1;stroke-width:0.075493" /><line
     x1="52"
     y1="3.5"
     x2="52"
     y2="57.820385"
     stroke="#acacac"
     stroke-width="0.510259"
     stroke-linecap="round"
     stroke-dasharray="40, 40"
     id="line16"
     style="display:inline;stroke:#e8e7e4;stroke-width:0.51;stroke-dasharray:2.55, 2.55;stroke-dashoffset:0;stroke-opacity:1"
     inkscape:label="stitch" /><defs
     id="defs117"><linearGradient
       id="paint0_linear_510_1129"
       x1="562.26801"
       y1="456.76001"
       x2="609.52399"
       y2="456.76001"
       gradientUnits="userSpaceOnUse"
       gradientTransform="matrix(-0.07190967,0,0,0.08632807,53.916927,2.000077)"><stop
         stop-color="#E8E7E4"
         id="stop100" /><stop
         offset="0.511049"
         stop-color="white"
         id="stop102" /><stop
         offset="1"
         stop-color="#C2BFBA"
         id="stop104" /></linearGradient><linearGradient
       id="paint1_linear_510_1129"
       x1="482.569"
       y1="655.625"
       x2="79.034401"
       y2="-44.716599"
       gradientUnits="userSpaceOnUse"
       gradientTransform="matrix(-0.07116236,0,0,0.08632807,54,2.000077)"><stop
         offset="0.140181"
         stop-color="#FF7A00"
         id="stop107" /><stop
         offset="1"
         stop-color="#FFB800"
         id="stop109" /></linearGradient><linearGradient
       id="paint2_linear_510_1129"
       x1="588.11456"
       y1="613.93616"
       x2="84.016365"
       y2="46.333981"
       gradientUnits="userSpaceOnUse"
       gradientTransform="matrix(-0.07141466,0,0,0.08632807,54,2.0000771)"><stop
         offset="0"
         stop-color="#FF7A00"
         id="stop112"
         style="stop-color:#317992;stop-opacity:1;" /><stop
         offset="1"
         stop-color="#FFB800"
         id="stop114"
         style="stop-color:#7cb5c8;stop-opacity:1;" /></linearGradient><filter
       style="color-interpolation-filters:sRGB;"
       inkscape:label="Drop Shadow"
       id="filter17"
       x="0"
       y="0"
       width="1.022899"
       height="1.0048805"><feFlood
         result="flood"
         in="SourceGraphic"
         flood-opacity="0.498039"
         flood-color="rgb(0,0,0)"
         id="feFlood16" /><feGaussianBlur
         result="blur"
         in="SourceGraphic"
         stdDeviation="0.000000"
         id="feGaussianBlur16" /><feOffset
         result="offset"
         in="blur"
         dx="0.200000"
         dy="0.200000"
         id="feOffset16" /><feComposite
         result="comp1"
         operator="out"
         in="flood"
         in2="offset"
         id="feComposite16" /><feComposite
         result="comp2"
         operator="atop"
         in="comp1"
         in2="SourceGraphic"
         id="feComposite17" /></filter></defs><g
     id="text7"
     style="font-size:11px;line-height:0.9;font-family:'Noto Sans';-inkscape-font-specification:'Noto Sans, Normal';text-align:end;text-anchor:end;fill:#e8e7e4;fill-opacity:1;stroke-width:0.5;stroke-linecap:round;stroke-linejoin:round;paint-order:stroke fill markers;filter:url(#filter17)"
     aria-label="コ&#10;ミ&#10;ッ&#10;ク"
     transform="translate(-1.942941,1.9999994)"><path
       style="font-family:'Noto Serif CJK JP';-inkscape-font-specification:'Noto Serif CJK JP, @wght=900';font-variation-settings:'wght' 900;fill:#e8e7e4;fill-opacity:1"
       d="m 33.352998,15.087441 h 1.43 c 0.341,-1.111 0.682,-2.343 0.924,-3.19 0.121,-0.429 0.528,-0.627 0.528,-0.99 0,-0.572 -1.386,-1.3969997 -1.837,-1.3969997 -0.363,0 -0.451,0.374 -0.968,0.44 -0.561,0.077 -3.245,0.3739997 -3.85,0.3739997 -0.385,0 -0.594,-0.165 -1.012,-0.4949997 l -0.132,0.055 c -0.011,0.2969997 0.022,0.6049997 0.099,0.8359997 0.154,0.495 0.715,1.111 1.111,1.111 0.33,0 0.671,-0.22 1.254,-0.363 0.616,-0.154 2.486,-0.429 2.981,-0.429 0.099,0 0.143,0.044 0.132,0.154 -0.044,0.726 -0.407,2.783 -0.66,3.894 z m -3.85,1.199 c 0.363,0 0.693,-0.154 1.133,-0.286 0.484,-0.143 1.507,-0.385 2.64,-0.385 0.946,0 1.606,0.176 2.035,0.176 0.385,0 0.583,-0.165 0.583,-0.451 0,-0.517 -0.451,-1.111 -1.43,-1.078 -0.297,0.011 -4.4,0.528 -5.137,0.528 -0.473,0 -0.759,-0.176 -1.122,-0.517 l -0.121,0.044 c -0.033,0.209 0,0.583 0.11,0.88 0.187,0.495 0.792,1.089 1.309,1.089 z"
       id="path7" /><path
       style="font-family:'Noto Serif CJK JP';-inkscape-font-specification:'Noto Serif CJK JP, @wght=900';font-variation-settings:'wght' 900;fill:#e8e7e4;fill-opacity:1"
       d="m 33.814998,28.398814 c 0.66,0 0.858,-0.374 0.858,-0.836 0,-0.429 -0.429,-0.946 -1.056,-1.287 -1.265,-0.693 -3.355,-0.902 -4.565,-0.781 l -0.033,0.143 c 1.386,0.484 2.585,1.177 3.465,1.98 0.484,0.462 0.924,0.781 1.331,0.781 z m -0.935,-3.883 c 0.495,0 0.715,-0.363 0.715,-0.748 0,-0.594 -0.506,-0.946 -1.056,-1.155 -0.55,-0.22 -1.815,-0.451 -3.333,-0.341 l -0.033,0.154 c 1.419,0.605 2.233,1.276 2.607,1.551 0.517,0.396 0.737,0.539 1.1,0.539 z m 1.067,-2.53 c 0.506,-0.011 0.682,-0.451 0.682,-0.682 0,-0.539 -0.264,-1.001 -1.012,-1.342 -1.023,-0.462 -2.772,-0.429 -3.531,-0.341 l -0.033,0.143 c 1.188,0.462 1.804,0.792 2.783,1.628 0.495,0.418 0.638,0.605 1.111,0.594 z"
       id="path8" /><path
       style="font-family:'Noto Serif CJK JP';-inkscape-font-specification:'Noto Serif CJK JP, @wght=900';font-variation-settings:'wght' 900;fill:#e8e7e4;fill-opacity:1"
       d="m 29.084998,39.257187 0.077,0.143 c 2.893,-0.594 5.027,-2.607 6.017,-4.631 0.132,-0.253 0.462,-0.506 0.462,-0.748 0,-0.517 -0.847,-1.265 -1.496,-1.243 -0.198,0.011 -0.495,0.066 -0.671,0.121 v 0.11 c 0.275,0.165 0.517,0.363 0.517,0.583 0,1.298 -2.343,4.444 -4.906,5.665 z m 1.023,-3.322 c 0.462,0 0.704,-0.286 0.704,-0.649 0,-0.638 -0.44,-1.188 -1.155,-1.507 -0.198,-0.088 -0.539,-0.22 -0.891,-0.297 l -0.088,0.121 c 0.198,0.264 0.396,0.616 0.594,1.122 0.253,0.616 0.286,1.21 0.836,1.21 z m 1.837,-0.704 c 0.33,0 0.693,-0.242 0.693,-0.682 0,-0.671 -0.396,-1.133 -1.012,-1.441 -0.33,-0.165 -0.616,-0.198 -0.968,-0.286 l -0.088,0.132 c 0.165,0.165 0.462,0.748 0.583,1.067 0.275,0.704 0.187,1.21 0.792,1.21 z"
       id="path9" /><path
       style="font-family:'Noto Serif CJK JP';-inkscape-font-specification:'Noto Serif CJK JP, @wght=900';font-variation-settings:'wght' 900;fill:#e8e7e4;fill-opacity:1"
       d="m 27.764998,50.30256 0.121,0.187 c 3.85,-1.243 6.127,-3.454 7.81,-6.292 0.209,-0.352 0.671,-0.484 0.671,-0.847 0,-0.528 -1.342,-1.188 -1.694,-1.188 -0.275,0 -0.528,0.308 -0.792,0.418 -0.297,0.121 -1.529,0.319 -1.826,0.319 -0.165,0 -0.275,0 -0.528,-0.033 l -0.22,0.462 c 0.319,0.275 0.638,0.55 0.825,0.55 0.242,0 0.396,-0.066 0.627,-0.154 0.275,-0.11 0.891,-0.286 1.122,-0.286 0.143,0 0.209,0.066 0.143,0.231 -0.946,2.365 -3.487,5.115 -6.259,6.633 z m -0.132,-4.004 0.121,0.187 c 2.035,-0.792 3.839,-2.618 4.829,-4.202 0.187,-0.297 0.33,-0.319 0.33,-0.572 0,-0.33 -0.979,-0.858 -1.87,-0.858 -0.407,0 -0.605,0.055 -0.825,0.132 l -0.011,0.121 c 0.341,0.209 0.583,0.506 0.583,0.726 0,0.748 -1.353,2.882 -3.157,4.466 z"
       id="path11" /></g></svg>
